ffmpeg started on 2025-05-12 at 21:01:32
Report written to "D:\Convert\FFMetrics\reports\ssim_report-6.txt"
Log level: 32
Command line:
ffmpeg -hide_banner -nostdin -i "G:\\\xc0\xed\xe8\xec\xe5\\\xce\xed\xe3\xee\xe8\xed\xe3\xe8\\!_35_\xcb\xe5\xf2\xee_2024\\DreamCast-1\\\xcf\xf0\xe8\xea\xeb\xfe\xf7\xe5\xed\xe8\xff \xe2 \xe4\xf0\xf3\xe3\xee\xec \xec\xe8\xf0\xe5 - \xc2\xee\xf1\xef\xe8\xf2\xfb\xe2\xe0\xf2\xfc \xe4\xe5\xf2\xe5\xe9 \xe1\xf3\xe4\xf3\xf7\xe8 \xe0\xe2\xe0\xed\xf2\xfe\xf0\xe8\xf1\xf2\xee\xec\\[DC] Iseyuru - 11_Telegram_HEVC.mkv" -i "G:\\\xc0\xed\xe8\xec\xe5\\\xce\xed\xe3\xee\xe8\xed\xe3\xe8\\!_35_\xcb\xe5\xf2\xee_2024\\DreamCast-1\\\xcf\xf0\xe8\xea\xeb\xfe\xf7\xe5\xed\xe8\xff \xe2 \xe4\xf0\xf3\xe3\xee\xec \xec\xe8\xf0\xe5 - \xc2\xee\xf1\xef\xe8\xf2\xfb\xe2\xe0\xf2\xfc \xe4\xe5\xf2\xe5\xe9 \xe1\xf3\xe4\xf3\xf7\xe8 \xe0\xe2\xe0\xed\xf2\xfe\xf0\xe8\xf1\xf2\xee\xec\\[DC] Iseyuru - 11_Telegram.mp4" -lavfi "[0:v]settb=AVTB,setpts=PTS-STARTPTS,format=pix_fmts=yuv420p10,fps=24000/1001,scale=1920:1080:flags=bicubic[main];[1:v]settb=AVTB,setpts=PTS-STARTPTS,format=pix_fmts=yuv420p,fps=24000/1001,scale=1920:1080:flags=bicubic[ref];[main][ref]ssim=eof_action=endall:stats_file='D\\:/Convert/FFMetrics/logs/ssim_logfile-6.txt'" -f null -
Input #0, matroska,webm, from 'G:\Аниме\Онгоинги\!_35_Лето_2024\DreamCast-1\Приключения в другом мире - Воспитывать детей будучи авантюристом\[DC] Iseyuru - 11_Telegram_HEVC.mkv':
  Metadata:
    COMPATIBLE_BRANDS: isomiso2avc1mp41
    MAJOR_BRAND     : isom
    MINOR_VERSION   : 512
    ENCODER         : Lavf61.7.100
  Duration: 00:23:56.59, start: -0.021000, bitrate: 949 kb/s
  Stream #0:0: Video: hevc (Main 10), yuv420p10le(tv, bt709, progressive), 1920x1080 [SAR 1:1 DAR 16:9], 23.98 fps, 23.98 tbr, 1k tbn (default)
      Metadata:
        HANDLER_NAME    : VideoHandler
        VENDOR_ID       : [0][0][0][0]
        ENCODER         : Lavc61.19.100 libx265
        BPS             : 751661
        DURATION        : 00:23:56.518708333
        NUMBER_OF_FRAMES: 34442
        NUMBER_OF_BYTES : 134971921
        _STATISTICS_WRITING_APP: mkvpropedit v66.0.0 ('Josie') 64-bit
        _STATISTICS_WRITING_DATE_UTC: 2025-05-10 14:27:39
        _STATISTICS_TAGS: BPS DURATION NUMBER_OF_FRAMES NUMBER_OF_BYTES
  Stream #0:1: Audio: aac (LC), 48000 Hz, stereo, fltp (default)
      Metadata:
        HANDLER_NAME    : SoundHandler
        VENDOR_ID       : [0][0][0][0]
        ENCODER         : Lavc61.19.100 aac
        BPS             : 194099
        DURATION        : 00:23:56.586000000
        NUMBER_OF_FRAMES: 67341
        NUMBER_OF_BYTES : 34855017
        _STATISTICS_WRITING_APP: mkvpropedit v66.0.0 ('Josie') 64-bit
        _STATISTICS_WRITING_DATE_UTC: 2025-05-10 14:27:39
        _STATISTICS_TAGS: BPS DURATION NUMBER_OF_FRAMES NUMBER_OF_BYTES
Input #1, mov,mp4,m4a,3gp,3g2,mj2, from 'G:\Аниме\Онгоинги\!_35_Лето_2024\DreamCast-1\Приключения в другом мире - Воспитывать детей будучи авантюристом\[DC] Iseyuru - 11_Telegram.mp4':
  Metadata:
    major_brand     : isom
    minor_version   : 512
    compatible_brands: isomiso2avc1mp41
    encoder         : Lavf60.12.100
  Duration: 00:23:56.54, start: 0.000000, bitrate: 3554 kb/s
  Stream #1:0[0x1](und): Video: h264 (High) (avc1 / 0x31637661), yuv420p(tv, bt709, progressive), 1920x1080 [SAR 1:1 DAR 16:9], 3406 kb/s, 23.98 fps, 23.98 tbr, 24k tbn (default)
      Metadata:
        handler_name    : VideoHandler
        vendor_id       : [0][0][0][0]
        encoder         : Lavc60.26.100 h264_qsv
  Stream #1:1[0x2](und): Audio: aac (HE-AACv2) (mp4a / 0x6134706D), 48000 Hz, stereo, fltp, 144 kb/s (default)
      Metadata:
        handler_name    : SoundHandler
        vendor_id       : [0][0][0][0]
Stream mapping:
  Stream #0:0 (hevc) -> settb:default
  Stream #1:0 (h264) -> settb:default
  ssim:default -> Stream #0:0 (wrapped_avframe)
  Stream #0:1 -> #0:1 (aac (native) -> pcm_s16le (native))
Output #0, null, to 'pipe:':
  Metadata:
    COMPATIBLE_BRANDS: isomiso2avc1mp41
    MAJOR_BRAND     : isom
    MINOR_VERSION   : 512
    encoder         : Lavf61.7.100
  Stream #0:0: Video: wrapped_avframe, yuv420p10le(tv, bt709, progressive), 1920x1080 [SAR 1:1 DAR 16:9], q=2-31, 200 kb/s, 23.98 fps, 23.98 tbn
      Metadata:
        encoder         : Lavc61.19.100 wrapped_avframe
  Stream #0:1: Audio: pcm_s16le, 48000 Hz, stereo, s16, 1536 kb/s (default)
      Metadata:
        HANDLER_NAME    : SoundHandler
        VENDOR_ID       : [0][0][0][0]
        _STATISTICS_TAGS: BPS DURATION NUMBER_OF_FRAMES NUMBER_OF_BYTES
        BPS             : 194099
        DURATION        : 00:23:56.586000000
        NUMBER_OF_FRAMES: 67341
        NUMBER_OF_BYTES : 34855017
        _STATISTICS_WRITING_APP: mkvpropedit v66.0.0 ('Josie') 64-bit
        _STATISTICS_WRITING_DATE_UTC: 2025-05-10 14:27:39
        encoder         : Lavc61.19.100 pcm_s16le
frame=  165 fps=0.0 q=-0.0 size=N/A time=00:00:06.88 bitrate=N/A speed=13.5x    frame=  403 fps=393 q=-0.0 size=N/A time=00:00:16.80 bitrate=N/A speed=16.4x    frame=  646 fps=418 q=-0.0 size=N/A time=00:00:26.94 bitrate=N/A speed=17.4x    frame=  905 fps=441 q=-0.0 size=N/A time=00:00:37.74 bitrate=N/A speed=18.4x    frame= 1137 fps=442 q=-0.0 size=N/A time=00:00:47.42 bitrate=N/A speed=18.4x    frame= 1397 fps=451 q=-0.0 size=N/A time=00:00:58.26 bitrate=N/A speed=18.8x    frame= 1642 fps=454 q=-0.0 size=N/A time=00:01:08.48 bitrate=N/A speed=18.9x    frame= 1872 fps=453 q=-0.0 size=N/A time=00:01:18.07 bitrate=N/A speed=18.9x    frame= 2107 fps=453 q=-0.0 size=N/A time=00:01:27.87 bitrate=N/A speed=18.9x    frame= 2359 fps=456 q=-0.0 size=N/A time=00:01:38.38 bitrate=N/A speed=  19x    frame= 2594 fps=456 q=-0.0 size=N/A time=00:01:48.19 bitrate=N/A speed=  19x    frame= 2806 fps=453 q=-0.0 size=N/A time=00:01:57.03 bitrate=N/A speed=18.9x    frame= 2954 fps=440 q=-0.0 size=N/A time=00:02:03.20 bitrate=N/A speed=18.4x    frame= 3105 fps=430 q=-0.0 size=N/A time=00:02:09.50 bitrate=N/A speed=17.9x    frame= 3334 fps=430 q=-0.0 size=N/A time=00:02:19.05 bitrate=N/A speed=17.9x    frame= 3566 fps=431 q=-0.0 size=N/A time=00:02:28.73 bitrate=N/A speed=  18x    frame= 3743 fps=426 q=-0.0 size=N/A time=00:02:36.11 bitrate=N/A speed=17.8x    frame= 3963 fps=426 q=-0.0 size=N/A time=00:02:45.29 bitrate=N/A speed=17.8x    frame= 4180 fps=426 q=-0.0 size=N/A time=00:02:54.34 bitrate=N/A speed=17.8x    frame= 4365 fps=423 q=-0.0 size=N/A time=00:03:02.05 bitrate=N/A speed=17.6x    frame= 4570 fps=421 q=-0.0 size=N/A time=00:03:10.60 bitrate=N/A speed=17.6x    frame= 4804 fps=423 q=-0.0 size=N/A time=00:03:20.36 bitrate=N/A speed=17.6x    frame= 5014 fps=422 q=-0.0 size=N/A time=00:03:29.12 bitrate=N/A speed=17.6x    frame= 5254 fps=424 q=-0.0 size=N/A time=00:03:39.13 bitrate=N/A speed=17.7x    frame= 5495 fps=426 q=-0.0 size=N/A time=00:03:49.18 bitrate=N/A speed=17.8x    frame= 5760 fps=429 q=-0.0 size=N/A time=00:04:00.24 bitrate=N/A speed=17.9x    frame= 6022 fps=432 q=-0.0 size=N/A time=00:04:11.16 bitrate=N/A speed=  18x    frame= 6248 fps=433 q=-0.0 size=N/A time=00:04:20.59 bitrate=N/A speed=  18x    frame= 6507 fps=435 q=-0.0 size=N/A time=00:04:31.39 bitrate=N/A speed=18.1x    frame= 6757 fps=436 q=-0.0 size=N/A time=00:04:41.82 bitrate=N/A speed=18.2x    frame= 7000 fps=437 q=-0.0 size=N/A time=00:04:51.95 bitrate=N/A speed=18.2x    frame= 7210 fps=437 q=-0.0 size=N/A time=00:05:00.71 bitrate=N/A speed=18.2x    frame= 7456 fps=438 q=-0.0 size=N/A time=00:05:10.97 bitrate=N/A speed=18.3x    frame= 7668 fps=437 q=-0.0 size=N/A time=00:05:19.81 bitrate=N/A speed=18.2x    frame= 7906 fps=438 q=-0.0 size=N/A time=00:05:29.74 bitrate=N/A speed=18.3x    frame= 8151 fps=439 q=-0.0 size=N/A time=00:05:39.96 bitrate=N/A speed=18.3x    frame= 8398 fps=440 q=-0.0 size=N/A time=00:05:50.26 bitrate=N/A speed=18.3x    frame= 8621 fps=440 q=-0.0 size=N/A time=00:05:59.56 bitrate=N/A speed=18.3x    frame= 8816 fps=438 q=-0.0 size=N/A time=00:06:07.70 bitrate=N/A speed=18.3x    frame= 9036 fps=438 q=-0.0 size=N/A time=00:06:16.87 bitrate=N/A speed=18.3x    frame= 9280 fps=439 q=-0.0 size=N/A time=00:06:27.05 bitrate=N/A speed=18.3x    frame= 9514 fps=439 q=-0.0 size=N/A time=00:06:36.81 bitrate=N/A speed=18.3x    frame= 9747 fps=439 q=-0.0 size=N/A time=00:06:46.53 bitrate=N/A speed=18.3x    frame= 9978 fps=440 q=-0.0 size=N/A time=00:06:56.16 bitrate=N/A speed=18.3x    frame=10229 fps=441 q=-0.0 size=N/A time=00:07:06.63 bitrate=N/A speed=18.4x    frame=10446 fps=440 q=-0.0 size=N/A time=00:07:15.68 bitrate=N/A speed=18.4x    frame=10680 fps=441 q=-0.0 size=N/A time=00:07:25.44 bitrate=N/A speed=18.4x    frame=10905 fps=440 q=-0.0 size=N/A time=00:07:34.82 bitrate=N/A speed=18.4x    frame=11139 fps=441 q=-0.0 size=N/A time=00:07:44.58 bitrate=N/A speed=18.4x    frame=11385 fps=441 q=-0.0 size=N/A time=00:07:54.84 bitrate=N/A speed=18.4x    frame=11619 fps=442 q=-0.0 size=N/A time=00:08:04.60 bitrate=N/A speed=18.4x    frame=11822 fps=441 q=-0.0 size=N/A time=00:08:13.07 bitrate=N/A speed=18.4x    frame=12061 fps=441 q=-0.0 size=N/A time=00:08:23.04 bitrate=N/A speed=18.4x    frame=12292 fps=441 q=-0.0 size=N/A time=00:08:32.67 bitrate=N/A speed=18.4x    frame=12536 fps=442 q=-0.0 size=N/A time=00:08:42.85 bitrate=N/A speed=18.4x    frame=12770 fps=442 q=-0.0 size=N/A time=00:08:52.61 bitrate=N/A speed=18.4x    frame=13013 fps=443 q=-0.0 size=N/A time=00:09:02.75 bitrate=N/A speed=18.5x    frame=13274 fps=444 q=-0.0 size=N/A time=00:09:13.67 bitrate=N/A speed=18.5x    frame=13523 fps=444 q=-0.0 size=N/A time=00:09:24.02 bitrate=N/A speed=18.5x    frame=13794 fps=446 q=-0.0 size=N/A time=00:09:35.32 bitrate=N/A speed=18.6x    frame=14015 fps=446 q=-0.0 size=N/A time=00:09:44.54 bitrate=N/A speed=18.6x    frame=14261 fps=446 q=-0.0 size=N/A time=00:09:54.80 bitrate=N/A speed=18.6x    frame=14507 fps=446 q=-0.0 size=N/A time=00:10:05.06 bitrate=N/A speed=18.6x    frame=14743 fps=447 q=-0.0 size=N/A time=00:10:14.90 bitrate=N/A speed=18.6x    frame=14998 fps=447 q=-0.0 size=N/A time=00:10:25.54 bitrate=N/A speed=18.6x    frame=15238 fps=447 q=-0.0 size=N/A time=00:10:35.55 bitrate=N/A speed=18.7x    frame=15466 fps=447 q=-0.0 size=N/A time=00:10:45.06 bitrate=N/A speed=18.7x    frame=15719 fps=448 q=-0.0 size=N/A time=00:10:55.61 bitrate=N/A speed=18.7x    frame=15974 fps=449 q=-0.0 size=N/A time=00:11:06.24 bitrate=N/A speed=18.7x    frame=16221 fps=449 q=-0.0 size=N/A time=00:11:16.55 bitrate=N/A speed=18.7x    frame=16489 fps=450 q=-0.0 size=N/A time=00:11:27.72 bitrate=N/A speed=18.8x    frame=16745 fps=451 q=-0.0 size=N/A time=00:11:38.40 bitrate=N/A speed=18.8x    frame=16997 fps=451 q=-0.0 size=N/A time=00:11:48.91 bitrate=N/A speed=18.8x    frame=17252 fps=452 q=-0.0 size=N/A time=00:11:59.55 bitrate=N/A speed=18.8x    frame=17452 fps=451 q=-0.0 size=N/A time=00:12:07.89 bitrate=N/A speed=18.8x    frame=17666 fps=450 q=-0.0 size=N/A time=00:12:16.81 bitrate=N/A speed=18.8x    frame=17915 fps=451 q=-0.0 size=N/A time=00:12:27.20 bitrate=N/A speed=18.8x    frame=18166 fps=451 q=-0.0 size=N/A time=00:12:37.67 bitrate=N/A speed=18.8x    frame=18411 fps=451 q=-0.0 size=N/A time=00:12:47.89 bitrate=N/A speed=18.8x    frame=18663 fps=452 q=-0.0 size=N/A time=00:12:58.40 bitrate=N/A speed=18.9x    frame=18915 fps=452 q=-0.0 size=N/A time=00:13:08.91 bitrate=N/A speed=18.9x    frame=19167 fps=453 q=-0.0 size=N/A time=00:13:19.42 bitrate=N/A speed=18.9x    frame=19415 fps=453 q=-0.0 size=N/A time=00:13:29.76 bitrate=N/A speed=18.9x    frame=19653 fps=453 q=-0.0 size=N/A time=00:13:39.69 bitrate=N/A speed=18.9x    frame=19900 fps=454 q=-0.0 size=N/A time=00:13:49.99 bitrate=N/A speed=18.9x    frame=20140 fps=454 q=-0.0 size=N/A time=00:14:00.00 bitrate=N/A speed=18.9x    frame=20384 fps=454 q=-0.0 size=N/A time=00:14:10.18 bitrate=N/A speed=18.9x    frame=20602 fps=454 q=-0.0 size=N/A time=00:14:19.27 bitrate=N/A speed=18.9x    frame=20864 fps=454 q=-0.0 size=N/A time=00:14:30.20 bitrate=N/A speed=18.9x    frame=21075 fps=454 q=-0.0 size=N/A time=00:14:39.00 bitrate=N/A speed=18.9x    frame=21332 fps=454 q=-0.0 size=N/A time=00:14:49.72 bitrate=N/A speed=18.9x    frame=21572 fps=454 q=-0.0 size=N/A time=00:14:59.73 bitrate=N/A speed=18.9x    frame=21788 fps=454 q=-0.0 size=N/A time=00:15:08.74 bitrate=N/A speed=18.9x    frame=22051 fps=455 q=-0.0 size=N/A time=00:15:19.71 bitrate=N/A speed=  19x    frame=22275 fps=454 q=-0.0 size=N/A time=00:15:29.05 bitrate=N/A speed=18.9x    frame=22508 fps=454 q=-0.0 size=N/A time=00:15:38.77 bitrate=N/A speed=  19x    frame=22742 fps=454 q=-0.0 size=N/A time=00:15:48.53 bitrate=N/A speed=18.9x    frame=22947 fps=454 q=-0.0 size=N/A time=00:15:57.08 bitrate=N/A speed=18.9x    frame=23176 fps=454 q=-0.0 size=N/A time=00:16:06.63 bitrate=N/A speed=18.9x    frame=23440 fps=454 q=-0.0 size=N/A time=00:16:17.64 bitrate=N/A speed=18.9x    frame=23680 fps=454 q=-0.0 size=N/A time=00:16:27.65 bitrate=N/A speed=18.9x    frame=23911 fps=454 q=-0.0 size=N/A time=00:16:37.28 bitrate=N/A speed=18.9x    frame=24131 fps=454 q=-0.0 size=N/A time=00:16:46.46 bitrate=N/A speed=18.9x    frame=24381 fps=454 q=-0.0 size=N/A time=00:16:56.89 bitrate=N/A speed=18.9x    frame=24620 fps=454 q=-0.0 size=N/A time=00:17:06.85 bitrate=N/A speed=  19x    frame=24841 fps=454 q=-0.0 size=N/A time=00:17:16.07 bitrate=N/A speed=18.9x    frame=25095 fps=455 q=-0.0 size=N/A time=00:17:26.67 bitrate=N/A speed=  19x    frame=25328 fps=455 q=-0.0 size=N/A time=00:17:36.38 bitrate=N/A speed=  19x    frame=25540 fps=454 q=-0.0 size=N/A time=00:17:45.23 bitrate=N/A speed=18.9x    frame=25748 fps=454 q=-0.0 size=N/A time=00:17:53.90 bitrate=N/A speed=18.9x    frame=25995 fps=454 q=-0.0 size=N/A time=00:18:04.20 bitrate=N/A speed=18.9x    frame=26229 fps=454 q=-0.0 size=N/A time=00:18:13.96 bitrate=N/A speed=18.9x    frame=26487 fps=454 q=-0.0 size=N/A time=00:18:24.72 bitrate=N/A speed=18.9x    frame=26717 fps=454 q=-0.0 size=N/A time=00:18:34.32 bitrate=N/A speed=18.9x    frame=26917 fps=454 q=-0.0 size=N/A time=00:18:42.66 bitrate=N/A speed=18.9x    frame=27080 fps=452 q=-0.0 size=N/A time=00:18:49.46 bitrate=N/A speed=18.9x    frame=27287 fps=452 q=-0.0 size=N/A time=00:18:58.09 bitrate=N/A speed=18.9x    frame=27495 fps=452 q=-0.0 size=N/A time=00:19:06.77 bitrate=N/A speed=18.8x    frame=27726 fps=451 q=-0.0 size=N/A time=00:19:16.40 bitrate=N/A speed=18.8x    frame=27958 fps=452 q=-0.0 size=N/A time=00:19:26.08 bitrate=N/A speed=18.8x    frame=28199 fps=452 q=-0.0 size=N/A time=00:19:36.13 bitrate=N/A speed=18.8x    frame=28440 fps=452 q=-0.0 size=N/A time=00:19:46.18 bitrate=N/A speed=18.8x    frame=28636 fps=451 q=-0.0 size=N/A time=00:19:54.35 bitrate=N/A speed=18.8x    frame=28870 fps=451 q=-0.0 size=N/A time=00:20:04.11 bitrate=N/A speed=18.8x    frame=29088 fps=451 q=-0.0 size=N/A time=00:20:13.21 bitrate=N/A speed=18.8x    frame=29340 fps=451 q=-0.0 size=N/A time=00:20:23.72 bitrate=N/A speed=18.8x    frame=29564 fps=451 q=-0.0 size=N/A time=00:20:33.06 bitrate=N/A speed=18.8x    frame=29790 fps=451 q=-0.0 size=N/A time=00:20:42.49 bitrate=N/A speed=18.8x    frame=30029 fps=451 q=-0.0 size=N/A time=00:20:52.45 bitrate=N/A speed=18.8x    frame=30271 fps=451 q=-0.0 size=N/A time=00:21:02.55 bitrate=N/A speed=18.8x    frame=30530 fps=452 q=-0.0 size=N/A time=00:21:13.35 bitrate=N/A speed=18.8x    frame=30780 fps=452 q=-0.0 size=N/A time=00:21:23.78 bitrate=N/A speed=18.8x    frame=31018 fps=452 q=-0.0 size=N/A time=00:21:33.70 bitrate=N/A speed=18.9x    frame=31281 fps=452 q=-0.0 size=N/A time=00:21:44.67 bitrate=N/A speed=18.9x    frame=31539 fps=453 q=-0.0 size=N/A time=00:21:55.43 bitrate=N/A speed=18.9x    frame=31795 fps=453 q=-0.0 size=N/A time=00:22:06.11 bitrate=N/A speed=18.9x    frame=32035 fps=453 q=-0.0 size=N/A time=00:22:16.12 bitrate=N/A speed=18.9x    frame=32275 fps=453 q=-0.0 size=N/A time=00:22:26.13 bitrate=N/A speed=18.9x    frame=32522 fps=453 q=-0.0 size=N/A time=00:22:36.43 bitrate=N/A speed=18.9x    frame=32752 fps=453 q=-0.0 size=N/A time=00:22:46.03 bitrate=N/A speed=18.9x    frame=32951 fps=453 q=-0.0 size=N/A time=00:22:54.33 bitrate=N/A speed=18.9x    frame=33158 fps=452 q=-0.0 size=N/A time=00:23:02.96 bitrate=N/A speed=18.9x    frame=33374 fps=452 q=-0.0 size=N/A time=00:23:11.97 bitrate=N/A speed=18.9x    frame=33568 fps=452 q=-0.0 size=N/A time=00:23:20.06 bitrate=N/A speed=18.8x    frame=33781 fps=451 q=-0.0 size=N/A time=00:23:28.94 bitrate=N/A speed=18.8x    frame=33948 fps=450 q=-0.0 size=N/A time=00:23:35.91 bitrate=N/A speed=18.8x    frame=34158 fps=450 q=-0.0 size=N/A time=00:23:44.67 bitrate=N/A speed=18.8x    frame=34334 fps=449 q=-0.0 size=N/A time=00:23:52.01 bitrate=N/A speed=18.7x    [Parsed_ssim_10 @ 00000242002c7a80] SSIM Y:0.995385 (23.357968) U:0.992780 (21.414375) V:0.993552 (21.906071) All:0.994645 (22.712502)
[out#0/null @ 000002427da743c0] video:14799KiB audio:269364KiB subtitle:0KiB other streams:0KiB global headers:0KiB muxing overhead: unknown
frame=34442 fps=449 q=-0.0 Lsize=N/A time=00:23:56.51 bitrate=N/A speed=18.7x    
